:FULLY-SPECIFIED
:FORCE-ALL-JOINTS-BE-3DOF
:DEGREES
476
root 4.68947 16.2862 -7.08658 -20.1819 51.5658 -27.4976
lfemur -26.4831 -10.2866 -16.3636
ltibia 49.2522 0 0
lfoot -23.7808 -3.10006 0
ltoes 8.89991 0 0
rfemur -51.5896 5.70184 7.18667
rtibia 64.2095 0 0
rfoot 7.31086 8.43158 0
rtoes -15.4481 0 0
lowerback 6.20072 0.509971 0.0188279
upperback 0.906549 0.705181 0.679834
thorax -2.44907 0.37428 0.643824
lowerneck -8.25123 -5.5359 1.52842
upperneck 7.52904 -7.6054 0.46493
head 3.92331 -3.68267 -0.703278
lclavicle -1.59511e-14 2.46911e-15 0
lhumerus -47.2222 -30.0802 110.028
lradius 53.9287 0 0
lwrist 6.84564 0 0
lhand -0.787634 0.329095 0
lfingers 7.12502 0 0
lthumb 24.7847 28.1556 0
rclavicle -1.59511e-14 2.46911e-15 0
rhumerus -41.937 28.811 -92.8724
rradius 85.5279 0 0
rwrist 20.4936 0 0
rhand -9.49034 -17.1479 0
rfingers 7.12502 0 0
rthumb 16.4421 -765.904 0
477
root 4.71582 16.294 -7.03243 -20.6293 53.1116 -27.902
lfemur -26.4495 -10.6454 -16.6134
ltibia 49.1458 0 0
lfoot -23.8211 -3.2794 0
ltoes 9.21109 0 0
rfemur -51.8876 5.74517 7.24748
rtibia 64.5363 0 0
rfoot 7.34619 8.5636 0
rtoes -15.469 0 0
lowerback 6.1935 0.472296 -0.0392937
upperback 0.884607 0.652363 0.707957
thorax -2.4704 0.348354 0.709399
lowerneck -8.28601 -5.7165 1.38123
upperneck 7.59441 -7.83759 0.520675
head 3.94532 -3.79775 -0.674159
lclavicle -1.57762e-14 2.3331e-15 0
lhumerus -47.2902 -30.2216 110.296
lradius 54.0265 0 0
lwrist 6.7371 0 0
lhand -0.404244 0.347593 0
lfingers 7.12502 0 0
lthumb 25.1529 28.1341 0
rclavicle -1.57762e-14 2.3331e-15 0
rhumerus -41.8368 29.2981 -92.9589
rradius 85.8361 0 0
rwrist 20.6518 0 0
rhand -9.06939 -17.0482 0
rfingers 7.12502 0 0
rthumb 16.8478 -765.782 0
478
root 4.74217 16.3018 -6.97829 -21.0767 54.6574 -28.3065
lfemur -26.4158 -11.0041 -16.8631
ltibia 49.0393 0 0
lfoot -23.8615 -3.45874 0
ltoes 9.52227 0 0
rfemur -52.1857 5.78849 7.30829
rtibia 64.863 0 0
rfoot 7.38152 8.69562 0
rtoes -15.4898 0 0
lowerback 6.18628 0.434621 -0.0974153
upperback 0.862666 0.599546 0.73608
thorax -2.49173 0.322429 0.774974
lowerneck -8.32079 -5.8971 1.23403
upperneck 7.65977 -8.06977 0.57642
head 3.96733 -3.91283 -0.64504
lclavicle -1.56013e-14 2.19709e-15 0
lhumerus -47.3581 -30.3631 110.564
lradius 54.1243 0 0
lwrist 6.62856 0 0
lhand -0.0208542 0.36609 0
lfingers 7.12502 0 0
lthumb 25.521 28.1127 0
rclavicle -1.56013e-14 2.19709e-15 0
rhumerus -41.7365 29.7853 -93.0454
rradius 86.1443 0 0
rwrist 20.81 0 0
rhand -8.64843 -16.9485 0
rfingers 7.12502 0 0
rthumb 17.2534 -765.66 0
479
root 4.76853 16.3097 -6.92415 -21.5241 56.2032 -28.7109
lfemur -26.3822 -11.3629 -17.1128
ltibia 48.9329 0 0
lfoot -23.9019 -3.63809 0
ltoes 9.83344 0 0
rfemur -52.4838 5.83182 7.36911
rtibia 65.1897 0 0
rfoot 7.41684 8.82763 0
rtoes -15.5106 0 0
lowerback 6.17906 0.396946 -0.155537
upperback 0.840725 0.546728 0.764203
thorax -2.51307 0.296503 0.840549
lowerneck -8.35557 -6.07771 1.08684
upperneck 7.72513 -8.30195 0.632165
head 3.98934 -4.02792 -0.615921
lclavicle -1.54264e-14 2.06108e-15 0
lhumerus -47.4261 -30.5046 110.832
lradius 54.2221 0 0
lwrist 6.52002 0 0
lhand 0.362536 0.384588 0
lfingers 7.12502 0 0
lthumb 25.8892 28.0912 0
rclavicle -1.54264e-14 2.06108e-15 0
rhumerus -41.6363 30.2724 -93.1319
rradius 86.4525 0 0
rwrist 20.9682 0 0
rhand -8.22747 -16.8488 0
rfingers 7.12502 0 0
rthumb 17.659 -765.538 0
480
root 4.79488 16.3175 -6.87 -21.9715 57.7489 -29.1154
lfemur -26.3485 -11.7216 -17.3625
ltibia 48.8265 0 0
lfoot -23.9423 -3.81743 0
ltoes 10.1446 0 0
rfemur -52.7818 5.87514 7.42992
rtibia 65.5164 0 0
rfoot 7.45217 8.95965 0
rtoes -15.5315 0 0
lowerback 6.17184 0.359271 -0.213658
upperback 0.818783 0.49391 0.792325
thorax -2.5344 0.270578 0.906125
lowerneck -8.39035 -6.25831 0.939649
upperneck 7.79049 -8.53414 0.68791
head 4.01135 -4.143 -0.586802
lclavicle -1.52515e-14 1.92507e-15 0
lhumerus -47.4941 -30.6461 111.1
lradius 54.3198 0 0
lwrist 6.41149 0 0
lhand 0.745925 0.403085 0
lfingers 7.12502 0 0
lthumb 26.2573 28.0697 0
rclavicle -1.52515e-14 1.92507e-15 0
rhumerus -41.5361 30.7596 -93.2184
rradius 86.7607 0 0
rwrist 21.1264 0 0
rhand -7.80651 -16.7491 0
rfingers 7.12502 0 0
rthumb 18.0646 -765.415 0
481
root 4.82123 16.3254 -6.81586 -22.4188 59.2947 -29.5198
lfemur -26.3149 -12.0803 -17.6122
ltibia 48.7201 0 0
lfoot -23.9827 -3.99678 0
ltoes 10.4558 0 0
rfemur -53.0799 5.91847 7.49073
rtibia 65.8432 0 0
rfoot 7.4875 9.09167 0
rtoes -15.5523 0 0
lowerback 6.16462 0.321596 -0.27178
upperback 0.796842 0.441093 0.820448
thorax -2.55573 0.244652 0.9717
lowerneck -8.42513 -6.43892 0.792457
upperneck 7.85585 -8.76632 0.743655
head 4.03336 -4.25808 -0.557683
lclavicle -1.50766e-14 1.78906e-15 0
lhumerus -47.5621 -30.7875 111.368
lradius 54.4176 0 0
lwrist 6.30295 0 0
lhand 1.12932 0.421583 0
lfingers 7.12502 0 0
lthumb 26.6255 28.0482 0
rclavicle -1.50766e-14 1.78906e-15 0
rhumerus -41.4359 31.2467 -93.3049
rradius 87.0689 0 0
rwrist 21.2846 0 0
rhand -7.38555 -16.6493 0
rfingers 7.12502 0 0
rthumb 18.4703 -765.293 0
482
root 4.84758 16.3332 -6.76172 -22.8662 60.8405 -29.9242
lfemur -26.2813 -12.4391 -17.8619
ltibia 48.6137 0 0
lfoot -24.0231 -4.17612 0
ltoes 10.767 0 0
rfemur -53.378 5.96179 7.55155
rtibia 66.1699 0 0
rfoot 7.52283 9.22368 0
rtoes -15.5732 0 0
lowerback 6.1574 0.283921 -0.329902
upperback 0.774901 0.388275 0.848571
thorax -2.57706 0.218726 1.03728
lowerneck -8.45991 -6.61952 0.645266
upperneck 7.92121 -8.9985 0.7994
head 4.05537 -4.37316 -0.528564
lclavicle -1.49016e-14 1.65305e-15 0
lhumerus -47.6301 -30.929 111.636
lradius 54.5154 0 0
lwrist 6.19441 0 0
lhand 1.5127 0.440081 0
lfingers 7.12502 0 0
lthumb 26.9936 28.0268 0
rclavicle -1.49016e-14 1.65305e-15 0
rhumerus -41.3356 31.7339 -93.3914
rradius 87.3771 0 0
rwrist 21.4429 0 0
rhand -6.96459 -16.5496 0
rfingers 7.12502 0 0
rthumb 18.8759 -765.171 0
483
root 4.87393 16.341 -6.70757 -23.3136 62.3862 -30.3287
lfemur -26.2476 -12.7978 -18.1116
ltibia 48.5073 0 0
lfoot -24.0635 -4.35547 0
ltoes 11.0782 0 0
rfemur -53.676 6.00512 7.61236
rtibia 66.4966 0 0
rfoot 7.55816 9.3557 0
rtoes -15.594 0 0
lowerback 6.15018 0.246246 -0.388023
upperback 0.752959 0.335457 0.876693
thorax -2.59839 0.192801 1.10285
lowerneck -8.49468 -6.80012 0.498074
upperneck 7.98657 -9.23069 0.855145
head 4.07738 -4.48824 -0.499445
lclavicle -1.47267e-14 1.51704e-15 0
lhumerus -47.698 -31.0705 111.905
lradius 54.6131 0 0
lwrist 6.08587 0 0
lhand 1.89609 0.458578 0
lfingers 7.12502 0 0
lthumb 27.3618 28.0053 0
rclavicle -1.47267e-14 1.51704e-15 0
rhumerus -41.2354 32.221 -93.4779
rradius 87.6853 0 0
rwrist 21.6011 0 0
rhand -6.54363 -16.4499 0
rfingers 7.12502 0 0
rthumb 19.2815 -765.048 0
484
root 4.90029 16.3489 -6.65343 -23.761 63.932 -30.7331
lfemur -26.214 -13.1565 -18.3613
ltibia 48.4009 0 0
lfoot -24.1039 -4.53481 0
ltoes 11.3893 0 0
rfemur -53.9741 6.04844 7.67318
rtibia 66.8234 0 0
rfoot 7.59349 9.48772 0
rtoes -15.6148 0 0
lowerback 6.14296 0.208571 -0.446145
upperback 0.731018 0.28264 0.904816
thorax -2.61973 0.166875 1.16843
lowerneck -8.52946 -6.98073 0.350882
upperneck 8.05193 -9.46287 0.91089
head 4.09939 -4.60332 -0.470326
lclavicle -1.45518e-14 1.38103e-15 0
lhumerus -47.766 -31.2119 112.173
lradius 54.7109 0 0
lwrist 5.97733 0 0
lhand 2.27948 0.477076 0
lfingers 7.12502 0 0
lthumb 27.7299 27.9838 0
rclavicle -1.45518e-14 1.38103e-15 0
rhumerus -41.1352 32.7082 -93.5644
rradius 87.9935 0 0
rwrist 21.7593 0 0
rhand -6.12267 -16.3502 0
rfingers 7.12502 0 0
rthumb 19.6871 -764.926 0
485
root 4.92664 16.3567 -6.59929 -24.2084 65.4778 -31.1376
lfemur -26.1803 -13.5153 -18.611
ltibia 48.2944 0 0
lfoot -24.1443 -4.71415 0
ltoes 11.7005 0 0
rfemur -54.2722 6.09177 7.73399
rtibia 67.1501 0 0
rfoot 7.62882 9.61974 0
rtoes -15.6357 0 0
lowerback 6.13574 0.170896 -0.504266
upperback 0.709077 0.229822 0.932939
thorax -2.64106 0.14095 1.234
lowerneck -8.56424 -7.16133 0.20369
upperneck 8.11729 -9.69505 0.966635
head 4.1214 -4.7184 -0.441207
lclavicle -1.43769e-14 1.24502e-15 0
lhumerus -47.834 -31.3534 112.441
lradius 54.8087 0 0
lwrist 5.8688 0 0
lhand 2.66287 0.495573 0
lfingers 7.12502 0 0
lthumb 28.0981 27.9624 0
rclavicle -1.43769e-14 1.24502e-15 0
rhumerus -41.0349 33.1953 -93.6509
rradius 88.3017 0 0
rwrist 21.9175 0 0
rhand -5.70172 -16.2505 0
rfingers 7.12502 0 0
rthumb 20.0927 -764.804 0
486
root 4.95299 16.3645 -6.54514 -24.6558 67.0236 -31.542
lfemur -26.1467 -13.874 -18.8607
ltibia 48.188 0 0
lfoot -24.1846 -4.8935 0
ltoes 12.0117 0 0
rfemur -54.5702 6.13509 7.7948
rtibia 67.4768 0 0
rfoot 7.66415 9.75175 0
rtoes -15.6565 0 0
lowerback 6.12852 0.133221 -0.562388
upperback 0.687135 0.177004 0.961062
thorax -2.66239 0.115024 1.29958
lowerneck -8.59902 -7.34193 0.0564976
upperneck 8.18266 -9.92724 1.02238
head 4.14341 -4.83348 -0.412088
lclavicle -1.4202e-14 1.10901e-15 0
lhumerus -47.902 -31.4949 112.709
lradius 54.9065 0 0
lwrist 5.76026 0 0
lhand 3.04626 0.514071 0
lfingers 7.12502 0 0
lthumb 28.4662 27.9409 0
rclavicle -1.4202e-14 1.10901e-15 0
rhumerus -40.9347 33.6825 -93.7374
rradius 88.6099 0 0
rwrist 22.0757 0 0
rhand -5.28076 -16.1508 0
rfingers 7.12502 0 0
rthumb 20.4984 -764.682 0
487
root 4.97934 16.3724 -6.491 -25.1032 68.5693 -31.9465
lfemur -26.113 -14.2327 -19.1104
ltibia 48.0816 0 0
lfoot -24.225 -5.07284 0
ltoes 12.3229 0 0
rfemur -54.8683 6.17842 7.85562
rtibia 67.8035 0 0
rfoot 7.69948 9.88377 0
rtoes -15.6774 0 0
lowerback 6.1213 0.0955458 -0.620509
upperback 0.665194 0.124187 0.989184
thorax -2.68372 0.0890985 1.36515
lowerneck -8.6338 -7.52254 -0.0906943
upperneck 8.24802 -10.1594 1.07812
head 4.16542 -4.94856 -0.382969
lclavicle -1.4027e-14 9.72998e-16 0
lhumerus -47.97 -31.6364 112.977
lradius 55.0042 0 0
lwrist 5.65172 0 0
lhand 3.42965 0.532568 0
lfingers 7.12502 0 0
lthumb 28.8344 27.9194 0
rclavicle -1.4027e-14 9.72998e-16 0
rhumerus -40.8345 34.1696 -93.8239
rradius 88.9181 0 0
rwrist 22.2339 0 0
rhand -4.8598 -16.0511 0
rfingers 7.12502 0 0
rthumb 20.904 -764.559 0
488
root 5.00569 16.3802 -6.43686 -25.5506 70.1151 -32.3509
lfemur -26.0794 -14.5915 -19.3601
ltibia 47.9752 0 0
lfoot -24.2654 -5.25219 0
ltoes 12.6341 0 0
rfemur -55.1663 6.22174 7.91643
rtibia 68.1303 0 0
rfoot 7.7348 10.0158 0
rtoes -15.6982 0 0
lowerback 6.11408 0.0578708 -0.678631
upperback 0.643252 0.0713691 1.01731
thorax -2.70505 0.0631729 1.43073
lowerneck -8.66858 -7.70314 -0.237886
upperneck 8.31338 -10.3916 1.13387
head 4.18744 -5.06365 -0.35385
lclavicle -1.38521e-14 8.36987e-16 0
lhumerus -48.0379 -31.7778 113.245
lradius 55.102 0 0
lwrist 5.54318 0 0
lhand 3.81304 0.551066 0
lfingers 7.12502 0 0
lthumb 29.2025 27.898 0
rclavicle -1.38521e-14 8.36987e-16 0
rhumerus -40.7342 34.6568 -93.9104
rradius 89.2263 0 0
rwrist 22.3921 0 0
rhand -4.43884 -15.9514 0
rfingers 7.12502 0 0
rthumb 21.3096 -764.437 0
489
root 5.03205 16.3881 -6.38271 -25.998 71.6609 -32.7553
lfemur -26.0457 -14.9502 -19.6098
ltibia 47.8688 0 0
lfoot -24.3058 -5.43153 0
ltoes 12.9452 0 0
rfemur -55.4644 6.26507 7.97725
rtibia 68.457 0 0
rfoot 7.77013 10.1478 0
rtoes -15.7191 0 0
lowerback 6.10686 0.0201959 -0.736753
upperback 0.621311 0.0185514 1.04543
thorax -2.72639 0.0372474 1.4963
lowerneck -8.70336 -7.88374 -0.385078
upperneck 8.37874 -10.6238 1.18962
head 4.20945 -5.17873 -0.32473
lclavicle -1.36772e-14 7.00977e-16 0
lhumerus -48.1059 -31.9193 113.513
lradius 55.1998 0 0
lwrist 5.43465 0 0
lhand 4.19643 0.569564 0
lfingers 7.12502 0 0
lthumb 29.5707 27.8765 0
rclavicle -1.36772e-14 7.00977e-16 0
rhumerus -40.634 35.1439 -93.9969
rradius 89.5345 0 0
rwrist 22.5503 0 0
rhand -4.01788 -15.8516 0
rfingers 7.12502 0 0
rthumb 21.7152 -764.315 0
